<?xml version="1.0" encoding="utf-8"?>
<!-- Generator: Adobe Illustrator 18.0.0, SVG Export Plug-In . SVG Version: 6.00 Build 0)  -->
<!DOCTYPE svg PUBLIC "-//W3C//DTD SVG 1.1//EN" "http://www.w3.org/Graphics/SVG/1.1/DTD/svg11.dtd">
<svg version="1.1" id="Layer_1" xmlns="http://www.w3.org/2000/svg" xmlns:xlink="http://www.w3.org/1999/xlink" x="0px" y="0px"
	 viewBox="-180.9 237.6 300.9 250.5" enable-background="new -180.9 237.6 300.9 250.5" xml:space="preserve">
<g>
	<g>
		<g>
			<g opacity="0.12">
				<g>
					<path fill="#181717" d="M108,305.4l-2.8,0.4l0,0l-0.7-1.4l0.4-0.1c0.1,0,0.1-0.1,0.1-0.1v-0.3c0-0.1-0.1-0.1-0.1-0.1l-0.7,0.1
						l-0.6-1.4c-0.1-0.1-0.2-0.2-0.4-0.2l-0.5,0.1c-0.1,0-0.2,0.1-0.2,0.3l1,3.4l0,0l-3.1,0.4c-0.2,0-0.6,0.2-0.8,0.4l-0.6-1
						c-0.1-0.1-0.3-0.2-0.4-0.2h0c-0.2,0-0.2,0.1-0.2,0.3l0.5,1.3l0,0l-0.9,0.3l-0.2,0c0,0,0,0,0,0c0,0,0,0,0,0l1.1-0.1l-0.5,1.1
						c-0.1,0.2,0,0.3,0.2,0.2h0c0.2,0,0.3-0.2,0.4-0.3l0.7-1.1c0.2,0.1,0.5,0.2,0.7,0.2l3-0.4l-1,3.1c0,0.1,0,0.2,0.2,0.2l0.5-0.1
						c0.1,0,0.3-0.1,0.4-0.3l0.8-1.6l0.6-0.1c0.1,0,0.1-0.1,0.1-0.1v-0.3c0-0.1-0.1-0.1-0.1-0.1l-0.3,0l0.5-1l2.8-0.4
						c0.3,0,1.1-0.4,1.1-0.8C109.1,305.5,108.3,305.4,108,305.4"/>
				</g>
			</g>
			<path fill="#FFFFFF" d="M104,295.1l-0.6,2.4c-0.1,0.2,0.1,0.4,0.3,0.4h0.1c0.2,0,0.5-0.2,0.6-0.5l1.1-2.5L104,295.1z"/>
			<path fill="#FFFFFF" d="M104,295l-1.1-1.7c-0.1-0.2,0-0.4,0.2-0.5h0.1c0.2,0,0.6,0.1,0.7,0.3l1.6,1.7L104,295z"/>
			<path fill="#FFFFFF" d="M118.2,292.2c0.6-0.1,1.8,0.2,1.8,0.8c0.1,0.6-1,1.2-1.6,1.2l-11.8,1.6c-0.6,0.1-1.6-0.2-1.6-0.8
				c-0.1-0.6,0.8-1.1,1.4-1.2L118.2,292.2z"/>
			<path fill="#FFFFFF" d="M113.7,294.5c0.2,0,0.3,0.1,0.3,0.3l-1.8,5.9c-0.1,0.2-0.3,0.4-0.5,0.4l-0.7,0.1c-0.2,0-0.4-0.1-0.3-0.3
				l0.9-5.8c0-0.2,0.2-0.4,0.5-0.4L113.7,294.5z"/>
			<path fill="#D9DFE6" d="M117.7,293.2c-0.4,0.1-12.7,1.8-12.7,1.8c0.1,0.6,1.1,0.9,1.6,0.8l4.9-0.7l-0.1,1l2.3-0.3l0.3-1l4.4-0.6
				c0.3,0,0.9-0.3,1.2-0.6C119.7,293.6,119,293,117.7,293.2"/>
			<path fill="#FFFFFF" d="M113.9,297.2c0.1,0,0.2,0.1,0.2,0.2l0.1,0.5c0,0.1-0.1,0.2-0.2,0.2l-1.2,0.2c-0.1,0-0.2-0.1-0.2-0.2
				l-0.1-0.5c0-0.1,0.1-0.2,0.2-0.2L113.9,297.2z"/>
			<path fill="#FFFFFF" d="M113.5,293.2c0.2,0,0.3-0.2,0.2-0.4l-3.2-4.4c-0.1-0.2-0.4-0.3-0.6-0.3l-0.7,0.1c-0.2,0-0.3,0.2-0.2,0.4
				l2.3,4.5c0.1,0.2,0.4,0.3,0.6,0.3L113.5,293.2z"/>
			<path fill="#FFFFFF" d="M113.1,291.4c0.1,0,0.2-0.1,0.2-0.2l-0.1-0.5c0-0.1-0.1-0.2-0.2-0.2l-1.2,0.2c-0.1,0-0.2,0.1-0.2,0.2
				l0.1,0.5c0,0.1,0.1,0.2,0.2,0.2L113.1,291.4z"/>
			<path fill="#382D61" d="M117.1,293.9c0,0.1,0,0.1-0.1,0.1l-0.2,0c-0.1,0-0.1,0-0.1-0.1c0-0.1,0-0.1,0.1-0.1l0.2,0
				C117.1,293.8,117.1,293.8,117.1,293.9"/>
			<path fill="#382D61" d="M116.3,294c0,0.1,0,0.1-0.1,0.1l-0.2,0c-0.1,0-0.1,0-0.1-0.1c0-0.1,0-0.1,0.1-0.1l0.2,0
				C116.2,293.9,116.3,293.9,116.3,294"/>
			<path fill="#382D61" d="M115.4,294.1c0,0.1,0,0.1-0.1,0.1l-0.2,0c-0.1,0-0.1,0-0.1-0.1c0-0.1,0-0.1,0.1-0.1l0.2,0
				C115.4,294,115.4,294.1,115.4,294.1"/>
			<path fill="#382D61" d="M114.6,294.2c0,0.1,0,0.1-0.1,0.1l-0.2,0c-0.1,0-0.1,0-0.1-0.1c0-0.1,0-0.1,0.1-0.1l0.2,0
				C114.5,294.1,114.6,294.2,114.6,294.2"/>
			<path fill="#382D61" d="M113.7,294.3c0,0.1,0,0.1-0.1,0.1l-0.2,0c-0.1,0-0.1,0-0.1-0.1c0-0.1,0-0.1,0.1-0.1l0.2,0
				C113.7,294.3,113.7,294.3,113.7,294.3"/>
			<path fill="#382D61" d="M112.8,294.5c0,0.1,0,0.1-0.1,0.1l-0.2,0c-0.1,0-0.1,0-0.1-0.1c0-0.1,0-0.1,0.1-0.1l0.2,0
				C112.8,294.4,112.8,294.4,112.8,294.5"/>
			<path fill="#382D61" d="M112,294.6c0,0.1,0,0.1-0.1,0.1l-0.2,0c-0.1,0-0.1,0-0.1-0.1c0-0.1,0-0.1,0.1-0.1l0.2,0
				C111.9,294.5,112,294.5,112,294.6"/>
			<path fill="#382D61" d="M111.1,294.7c0,0.1,0,0.1-0.1,0.1l-0.2,0c-0.1,0-0.1,0-0.1-0.1c0-0.1,0-0.1,0.1-0.1l0.2,0
				C111.1,294.6,111.1,294.6,111.1,294.7"/>
			<path fill="#382D61" d="M110.3,294.8c0,0.1,0,0.1-0.1,0.1l-0.2,0c-0.1,0-0.1,0-0.1-0.1c0-0.1,0-0.1,0.1-0.1l0.2,0
				C110.2,294.7,110.3,294.8,110.3,294.8"/>
			<path fill="#382D61" d="M109.4,294.9c0,0.1,0,0.1-0.1,0.1l-0.2,0c-0.1,0-0.1,0-0.1-0.1c0-0.1,0-0.1,0.1-0.1l0.2,0
				C109.4,294.8,109.4,294.9,109.4,294.9"/>
			<path fill="#382D61" d="M108.5,295c0,0.1,0,0.1-0.1,0.1l-0.2,0c-0.1,0-0.1,0-0.1-0.1c0-0.1,0-0.1,0.1-0.1l0.2,0
				C108.5,295,108.5,295,108.5,295"/>
		</g>
		
			<line fill="none" stroke="#FFFFFF" stroke-width="0.2606" stroke-linecap="round" stroke-linejoin="round" stroke-miterlimit="10" x1="102.2" y1="295" x2="105" y2="294.7"/>
		<g>
			<path fill="#58338A" d="M118.7,293.5c0,0-0.1,0-0.1,0c0,0,0-0.1,0.1-0.1c0.2-0.1,0.3-0.2,0.4-0.3c0.1-0.1,0.1-0.3,0.1-0.4v0
				c0-0.1-0.2-0.2-0.2-0.2s0.2,0.1,0.3,0.2c0.1,0.1,0.1,0.4,0,0.6C119.2,293.4,119,293.4,118.7,293.5L118.7,293.5"/>
			<path fill="#BDC5D3" d="M106.4,294.9h-2.5l-1.7,0.2c0,0,0,0,0,0h0.1l1.7,0.1l0,0l-0.3,1.2l1.5-0.8l0-0.1c0.2,0.2,0.8,0.4,1.1,0.4
				c0,0-0.1-0.2-0.1-0.5c0-0.2,0.1-0.5,0.1-0.5H106.4z"/>
			<path fill="#D9DFE6" d="M113.2,297.3l-0.3,0.9l1.1-0.1c0,0,0.1,0,0.1-0.1c0.1-0.1,0-0.2,0-0.2l-0.6,0.1
				C113.4,297.9,113.2,297.6,113.2,297.3"/>
			<path fill="#D9DFE6" d="M112.5,291.2l0.2,0.2l0.5-0.1c0,0,0.1,0,0.1-0.1c0.1-0.1,0-0.2,0-0.2L112.5,291.2z"/>
		</g>
	</g>
</g>
<line fill="none" stroke="#FFFFFF" stroke-width="0.9789" stroke-linecap="round" x1="-174.9" y1="332.8" x2="100.2" y2="296.1"/>
</svg>
